<svg width="103.679932" height="98.000000" viewBox="0 0 103.68 98" fill="none" xmlns="http://www.w3.org/2000/svg" xmlns:xlink="http://www.w3.org/1999/xlink">
	<desc>
			Created with Pixso.
	</desc>
	<defs/>
	<path id="Vector" d="M59.4006 0.00219727C58.4773 0.0268555 57.5691 0.19751 56.7283 0.504395C55.8877 0.811279 55.1311 1.24854 54.5022 1.79077L26.9468 25.4248L7.30225 42.2725C4.44116 44.7126 2.33105 47.6545 1.13965 50.8635C0.884521 51.553 0.671875 52.2522 0.502686 52.9583C-0.26123 56.1538 -0.15332 59.4441 0.818604 62.603C1.25073 64.0283 1.84619 65.4185 2.59741 66.7559C4.15576 69.5342 6.35376 72.0527 9.07617 74.1792L30.8767 91.3003L31.0754 91.4556C42.5339 100.296 60.9043 100.165 72.1743 91.1533L84.3872 81.3862C87.1396 79.1812 87.1396 75.6123 84.4023 73.4033C83.751 72.8787 82.9768 72.4622 82.124 72.1775C81.2715 71.8928 80.3569 71.7458 79.4333 71.7446C78.5095 71.7434 77.5945 71.8884 76.7407 72.1709C75.887 72.4534 75.1113 72.8682 74.4578 73.3911L62.2449 83.1582C59.3975 85.4097 55.5679 86.6848 51.5674 86.7139C47.5667 86.7427 43.709 85.5232 40.8113 83.3135L40.7092 83.2358L18.9136 66.1147C15.5903 63.5015 13.9592 60.1162 14.0815 56.8743C14.1057 56.1553 14.2185 55.4399 14.418 54.7385C14.9302 52.9597 16.0186 51.3206 17.573 49.9856L37.2126 33.134C42.6055 28.5034 53.5439 27.9482 59.7932 31.9988L77.6384 43.5586C80.6611 45.5186 85.0854 45.1389 87.5269 42.7134C88.6973 41.5481 89.2434 40.0588 89.0457 38.5718C88.8479 37.0847 87.9224 35.7209 86.4719 34.7795L68.6316 23.2197C64.554 20.5779 59.6301 18.9526 54.4922 18.3118L64.7629 9.5C65.7097 8.68433 66.3345 7.66309 66.5591 6.56396C66.7837 5.46484 66.5977 4.33716 66.0249 3.32251C65.4519 2.30762 64.5176 1.45117 63.3391 0.860596C62.1604 0.269775 60.7903 -0.0288086 59.4006 0.00219727ZM44.792 52.3296C43.8674 52.3296 42.9519 52.4756 42.0979 52.7593C41.2439 53.043 40.468 53.4587 39.8147 53.9829C39.1614 54.5068 38.6433 55.1292 38.2905 55.8137C37.9375 56.4983 37.7566 57.2319 37.7581 57.9727C37.7566 58.7134 37.9375 59.447 38.2905 60.1316C38.6433 60.8162 39.1614 61.4382 39.8147 61.9624C40.468 62.4866 41.2439 62.9023 42.0979 63.186C42.9519 63.4697 43.8674 63.6157 44.792 63.6157L96.6458 63.6157C97.5706 63.6157 98.4861 63.4697 99.3401 63.186C100.194 62.9023 100.97 62.4866 101.623 61.9624C102.277 61.4382 102.795 60.8162 103.147 60.1316C103.5 59.447 103.681 58.7134 103.68 57.9727C103.681 57.2319 103.5 56.4983 103.147 55.8137C102.795 55.1292 102.277 54.5068 101.623 53.9829C100.97 53.4587 100.194 53.043 99.3401 52.7593C98.4861 52.4756 97.5706 52.3296 96.6458 52.3296L44.792 52.3296Z" fill="#FAFAFA" fill-opacity="1.000000" fill-rule="nonzero"/>
</svg>
